<svg width="289" height="348" viewBox="0 0 289 348" fill="none" xmlns="http://www.w3.org/2000/svg">
<path d="M90.49 144.55L88.7914 145.606L88.7952 145.612L88.799 145.618L90.49 144.55ZM90.05 124.53L88.2038 123.761L88.1998 123.771L88.1958 123.78L90.05 124.53ZM96.43 115.84L97.6943 117.39L97.7727 117.326L97.8442 117.254L96.43 115.84ZM97.75 117.6L96.55 116L96.5398 116.008L97.75 117.6ZM93.57 124.2L91.6635 123.596L91.6568 123.617L91.6505 123.638L93.57 124.2ZM107.1 142.46L108.373 144.003L108.373 144.003L107.1 142.46ZM116.12 132.89L114.555 131.644L114.548 131.653L114.541 131.662L116.12 132.89ZM125.25 119.91L126.946 120.97L126.953 120.958L125.25 119.91ZM133.39 105.72L135.156 106.658L135.156 106.658L133.39 105.72ZM139.77 92.85L141.592 93.675L141.598 93.6623L139.77 92.85ZM143.4 83.61L145.316 84.1847L146.174 81.3226L143.201 81.6199L143.4 83.61ZM139.33 84.05L139.478 86.0445L139.514 86.0418L139.551 86.0378L139.33 84.05ZM132.62 84.82L132.861 86.8055L132.886 86.8024L132.911 86.7987L132.62 84.82ZM125.47 86.03L125.043 84.0762L125.029 84.0791L125.47 86.03ZM119.75 87.9L118.89 86.0943L118.873 86.1025L118.856 86.1111L119.75 87.9ZM119.31 92.19L118.608 94.0627L118.676 94.0882L118.746 94.1087L119.31 92.19ZM123.49 93.18L123.116 95.1447L123.168 95.1545L123.22 95.1617L123.49 93.18ZM127.67 93.95L127.185 95.8903L127.198 95.8937L127.212 95.8968L127.67 93.95ZM128.22 96.15L128.746 98.0795L128.8 98.0649L128.852 98.0474L128.22 96.15ZM125.69 96.59L125.524 94.5969L125.524 94.5969L125.69 96.59ZM117.55 94.83L116.412 96.4744L116.447 96.4992L116.484 96.5225L117.55 94.83ZM117.11 84.71L118.237 86.3625L118.262 86.3453L118.286 86.3275L117.11 84.71ZM131.08 80.53L131.295 82.5184L131.318 82.5159L131.341 82.5129L131.08 80.53ZM138.78 79.76L138.659 77.7637L138.655 77.7639L138.78 79.76ZM144.28 79.32L144.514 81.3063L145.467 81.1941L145.976 80.38L144.28 79.32ZM145.93 77.23L144.456 75.8785L144.45 75.8847L145.93 77.23ZM150.55 77.12L149.199 78.5943L149.233 78.6262L149.27 78.6564L150.55 77.12ZM152.53 78.77L151.25 80.3064L151.622 80.6171L152.096 80.7224L152.53 78.77ZM156.16 79.21L155.994 81.2031L156.037 81.2067L156.08 81.2084L156.16 79.21ZM161.99 79.65L162.203 77.6614L162.203 77.6614L161.99 79.65ZM167.27 80.64L166.695 82.5556L166.708 82.5594L166.721 82.563L167.27 80.64ZM168.59 83.06L168.369 81.0722L168.356 81.0737L168.342 81.0754L168.59 83.06ZM157.04 83.06V85.06H157.088L157.135 85.0577L157.04 83.06ZM152.64 83.17L152.54 81.1725L151.485 81.2253L150.933 82.1271L152.64 83.17ZM146.59 93.51L144.852 92.5209L144.846 92.5309L146.59 93.51ZM138.67 107.15L136.953 106.125L136.953 106.125L138.67 107.15ZM129.32 121.89L130.98 123.005L130.98 123.005L129.32 121.89ZM119.09 135.31L117.583 133.995L117.576 134.003L117.57 134.011L119.09 135.31ZM108.64 144.99L107.507 143.342L107.495 143.35L107.484 143.358L108.64 144.99ZM98.3 146.73C95.5016 146.73 93.5547 145.657 92.181 143.482L88.799 145.618C90.9453 149.016 94.205 150.73 98.3 150.73V146.73ZM92.1886 143.494C90.7305 141.149 89.96 138.301 89.96 134.87H85.96C85.96 138.919 86.8762 142.525 88.7914 145.606L92.1886 143.494ZM89.96 134.87C89.96 131.7 90.5995 128.507 91.9042 125.28L88.1958 123.78C86.7138 127.446 85.96 131.147 85.96 134.87H89.96ZM91.8962 125.299C93.244 122.064 95.1783 119.442 97.6943 117.39L95.1657 114.29C92.1084 116.784 89.7893 119.956 88.2038 123.761L91.8962 125.299ZM97.8442 117.254C97.4835 117.615 97.105 117.62 97.09 117.62V113.62C96.4884 113.62 95.6698 113.772 95.0158 114.426L97.8442 117.254ZM97.09 117.62C97.1484 117.62 96.8248 117.633 96.5008 117.309C96.1768 116.985 96.19 116.662 96.19 116.72H100.19C100.19 116.045 100.02 115.171 99.3292 114.481C98.6385 113.79 97.765 113.62 97.09 113.62V117.62ZM96.19 116.72C96.19 116.63 96.21 116.483 96.2911 116.321C96.3723 116.158 96.4779 116.054 96.55 116L98.95 119.2C99.7469 118.602 100.19 117.716 100.19 116.72H96.19ZM96.5398 116.008C94.2766 117.728 92.6965 120.338 91.6635 123.596L95.4765 124.804C96.3501 122.049 97.5567 120.259 98.9602 119.192L96.5398 116.008ZM91.6505 123.638C90.7168 126.829 90.25 130.098 90.25 133.44H94.25C94.25 130.476 94.6632 127.585 95.4895 124.762L91.6505 123.638ZM90.25 133.44C90.25 136.962 90.8374 140.171 92.0617 143.028L95.7383 141.452C94.7626 139.175 94.25 136.518 94.25 133.44H90.25ZM92.0617 143.028C92.7059 144.531 93.5868 145.812 94.779 146.719C95.9964 147.646 97.4197 148.09 98.96 148.09V144.09C98.227 144.09 97.6702 143.893 97.201 143.536C96.7065 143.16 96.1941 142.516 95.7383 141.452L92.0617 143.028ZM98.96 148.09C102.107 148.09 105.261 146.57 108.373 144.003L105.827 140.917C103.072 143.19 100.8 144.09 98.96 144.09V148.09ZM108.373 144.003C111.449 141.465 114.555 138.159 117.699 134.118L114.541 131.662C111.525 135.541 108.618 138.615 105.827 140.917L108.373 144.003ZM117.685 134.136C120.889 130.111 123.976 125.722 126.946 120.97L123.554 118.85C120.657 123.485 117.657 127.749 114.555 131.644L117.685 134.136ZM126.953 120.958C129.908 116.157 132.642 111.391 135.156 106.658L131.624 104.782C129.151 109.436 126.459 114.129 123.547 118.862L126.953 120.958ZM135.156 106.658C137.665 101.936 139.811 97.608 141.592 93.675L137.948 92.025C136.209 95.8654 134.102 100.117 131.624 104.782L135.156 106.658ZM141.598 93.6623C143.368 89.6799 144.619 86.5079 145.316 84.1847L141.484 83.0353C140.861 85.1121 139.692 88.1001 137.942 92.0377L141.598 93.6623ZM143.201 81.6199C142.455 81.6945 141.088 81.8423 139.109 82.0622L139.551 86.0378C141.532 85.8177 142.878 85.6722 143.599 85.6001L143.201 81.6199ZM139.182 82.0555C137.144 82.2065 134.858 82.4694 132.329 82.8413L132.911 86.7987C135.369 86.4373 137.556 86.1869 139.478 86.0445L139.182 82.0555ZM132.379 82.8345C129.898 83.1354 127.452 83.5492 125.043 84.0762L125.897 87.9838C128.181 87.4842 130.502 87.0913 132.861 86.8055L132.379 82.8345ZM125.029 84.0791C122.66 84.6141 120.603 85.2788 118.89 86.0943L120.61 89.7057C121.977 89.0546 123.733 88.4725 125.911 87.9809L125.029 84.0791ZM118.856 86.1111C117.224 86.9271 115.55 88.2795 115.55 90.43H119.55C119.55 90.5167 119.501 90.5188 119.609 90.3949C119.744 90.2404 120.045 89.9884 120.644 89.6888L118.856 86.1111ZM115.55 90.43C115.55 92.5008 117.266 93.5596 118.608 94.0627L120.012 90.3173C119.802 90.2383 119.651 90.1652 119.548 90.1049C119.497 90.0753 119.461 90.0509 119.438 90.0331C119.414 90.0153 119.404 90.0057 119.404 90.0058C119.406 90.0072 119.448 90.0502 119.488 90.1402C119.53 90.2349 119.55 90.3379 119.55 90.43H115.55ZM118.746 94.1087C120.066 94.4971 121.524 94.8415 123.116 95.1447L123.864 91.2153C122.376 90.9318 121.047 90.6162 119.874 90.2713L118.746 94.1087ZM123.22 95.1617C124.784 95.3749 126.102 95.6195 127.185 95.8903L128.155 92.0097C126.892 91.6938 125.423 91.4251 123.76 91.1983L123.22 95.1617ZM127.212 95.8968C127.472 95.9581 127.673 96.017 127.822 96.0697C127.976 96.124 128.045 96.1612 128.058 96.1689C128.08 96.1812 127.969 96.123 127.841 95.9566C127.693 95.7652 127.54 95.4506 127.54 95.05H131.54C131.54 93.7489 130.6 93.023 130.087 92.7211C129.518 92.3864 128.821 92.1662 128.128 92.0032L127.212 95.8968ZM127.54 95.05C127.54 94.8104 127.604 94.588 127.702 94.4085C127.793 94.2411 127.892 94.1498 127.93 94.1186C127.966 94.0879 127.967 94.0952 127.903 94.1274C127.841 94.1584 127.739 94.202 127.588 94.2526L128.852 98.0474C129.401 97.8646 129.997 97.6027 130.49 97.1914C131.019 96.7512 131.54 96.0322 131.54 95.05H127.54ZM127.694 94.2205C127.011 94.4066 126.289 94.5332 125.524 94.5969L125.856 98.5831C126.851 98.5002 127.815 98.3334 128.746 98.0795L127.694 94.2205ZM125.524 94.5969C124.63 94.6714 124.126 94.7 123.93 94.7V98.7C124.32 98.7 124.99 98.6552 125.856 98.5831L125.524 94.5969ZM123.93 94.7C122.045 94.7 120.286 94.1895 118.616 93.1375L116.484 96.5225C118.774 97.9639 121.268 98.7 123.93 98.7V94.7ZM118.688 93.1856C117.367 92.2711 116.69 91.0052 116.69 89.11H112.69C112.69 92.2015 113.919 94.7489 116.412 96.4744L118.688 93.1856ZM116.69 89.11C116.69 87.9874 117.128 87.1186 118.237 86.3625L115.983 83.0575C113.866 84.5013 112.69 86.5659 112.69 89.11H116.69ZM118.286 86.3275C119.651 85.3353 121.461 84.5078 123.782 83.8934L122.758 80.0266C120.092 80.7322 117.796 81.738 115.934 83.0925L118.286 86.3275ZM123.782 83.8934C126.172 83.2606 128.676 82.8015 131.295 82.5184L130.865 78.5416C128.057 78.8451 125.354 79.3394 122.758 80.0266L123.782 83.8934ZM131.341 82.5129C134.091 82.1511 136.611 81.8994 138.905 81.7561L138.655 77.7639C136.255 77.9139 133.643 78.1756 130.819 78.5471L131.341 82.5129ZM138.901 81.7563C141.331 81.6091 143.21 81.4597 144.514 81.3063L144.046 77.3337C142.857 77.4736 141.069 77.6176 138.659 77.7637L138.901 81.7563ZM145.976 80.38C146.254 79.9352 146.717 79.3378 147.41 78.5753L144.45 75.8847C143.677 76.7356 143.039 77.5315 142.584 78.26L145.976 80.38ZM147.404 78.5814C148.015 77.915 148.327 77.91 148.35 77.91V73.91C146.759 73.91 145.458 74.785 144.456 75.8785L147.404 78.5814ZM148.35 77.91C148.193 77.91 148.186 77.8606 148.376 77.9649C148.558 78.0648 148.831 78.2571 149.199 78.5943L151.901 75.6457C150.977 74.7983 149.749 73.91 148.35 73.91V77.91ZM149.27 78.6564C150.15 79.3898 150.81 79.9398 151.25 80.3064L153.81 77.2336C153.37 76.8669 152.71 76.3169 151.83 75.5836L149.27 78.6564ZM152.096 80.7224C152.906 80.9023 154.242 81.0571 155.994 81.2031L156.326 77.2169C154.558 77.0695 153.474 76.931 152.964 76.8176L152.096 80.7224ZM156.08 81.2084C157.864 81.2798 159.762 81.4228 161.777 81.6386L162.203 77.6614C160.111 77.4372 158.123 77.2869 156.24 77.2116L156.08 81.2084ZM161.777 81.6386C163.747 81.8497 165.379 82.1609 166.695 82.5556L167.845 78.7243C166.227 78.2391 164.34 77.8903 162.203 77.6614L161.777 81.6386ZM166.721 82.563C167.031 82.6518 167.269 82.7402 167.444 82.8211C167.622 82.9031 167.711 82.9654 167.744 82.992C167.775 83.0168 167.728 82.9875 167.675 82.8876C167.615 82.7769 167.58 82.6416 167.58 82.51H171.58C171.58 81.3664 170.997 80.4791 170.261 79.883C169.577 79.3295 168.708 78.9708 167.819 78.7169L166.721 82.563ZM167.58 82.51C167.58 82.1817 167.681 81.8501 167.874 81.571C168.052 81.3139 168.254 81.179 168.361 81.1192C168.541 81.0192 168.605 81.046 168.369 81.0722L168.811 85.0478C169.235 85.0007 169.794 84.8991 170.304 84.6158C170.892 84.289 171.58 83.5965 171.58 82.51H167.58ZM168.342 81.0754C167.861 81.1356 167.251 81.17 166.5 81.17V85.17C167.362 85.17 168.146 85.1311 168.838 85.0446L168.342 81.0754ZM166.5 81.17C165.444 81.17 164.429 81.1348 163.452 81.0651L163.168 85.0549C164.245 85.1319 165.356 85.17 166.5 85.17V81.17ZM163.452 81.0651C162.476 80.9954 161.789 80.95 161.55 80.95V84.95C161.547 84.95 161.659 84.9538 161.975 84.9736C162.26 84.9914 162.656 85.0184 163.168 85.0549L163.452 81.0651ZM161.55 80.95C160.05 80.95 158.515 80.9875 156.945 81.0623L157.135 85.0577C158.645 84.9858 160.117 84.95 161.55 84.95V80.95ZM157.04 81.06C155.54 81.06 154.04 81.0975 152.54 81.1725L152.74 85.1675C154.173 85.0958 155.607 85.06 157.04 85.06V81.06ZM150.933 82.1271C149.305 84.792 147.277 88.2586 144.852 92.5209L148.328 94.499C150.743 90.2547 152.748 86.828 154.347 84.2129L150.933 82.1271ZM144.846 92.5309C142.51 96.6928 139.879 101.224 136.953 106.125L140.387 108.175C143.328 103.249 145.977 98.6872 148.334 94.4891L144.846 92.5309ZM136.953 106.125C134.038 111.007 130.941 115.89 127.66 120.775L130.98 123.005C134.299 118.063 137.435 113.12 140.387 108.175L136.953 106.125ZM127.66 120.775C124.402 125.626 121.042 130.031 117.583 133.995L120.597 136.625C124.178 132.522 127.638 127.981 130.98 123.005L127.66 120.775ZM117.57 134.011C114.21 137.942 110.853 141.041 107.507 143.342L109.773 146.638C113.467 144.099 117.077 140.745 120.61 136.609L117.57 134.011ZM107.484 143.358C104.208 145.679 101.157 146.73 98.3 146.73V150.73C102.19 150.73 106.032 149.288 109.796 146.622L107.484 143.358Z" fill="black"/>
<path d="M156.58 186.17L156.779 184.18L156.774 184.179L156.58 186.17ZM153.17 175.72L155.053 176.393L155.057 176.382L155.061 176.372L153.17 175.72ZM155.81 169.12L154.01 168.249L153.998 168.273L153.987 168.297L155.81 169.12ZM159 162.74L157.252 161.769L157.238 161.794L157.224 161.819L159 162.74ZM161.75 157.9L163.474 158.914L163.486 158.893L163.498 158.871L161.75 157.9ZM162.63 154.6L160.773 155.343L160.804 155.42L160.841 155.494L162.63 154.6ZM163.07 151.52L161.342 150.512L161.31 150.568L161.281 150.626L163.07 151.52ZM155.92 129.85L157.541 128.679L154.47 124.427L153.931 129.644L155.92 129.85ZM153.39 130.84L151.584 131.7L151.593 131.717L151.601 131.734L153.39 130.84ZM150.2 125.45L148.501 126.505L148.522 126.539L148.545 126.573L150.2 125.45ZM144.7 119.84L143.472 121.419L143.519 121.455L143.567 121.488L144.7 119.84ZM145.25 115.77L144.258 114.034L144.258 114.034L145.25 115.77ZM153.72 117.64L155.134 116.226L155.134 116.226L153.72 117.64ZM158.89 124.79L157.138 125.754L157.152 125.78L157.167 125.806L158.89 124.79ZM163.29 133.92L161.424 134.641L161.431 134.659L161.439 134.677L163.29 133.92ZM167.8 149.43L165.802 149.525L166.044 154.612L169.329 150.72L167.8 149.43ZM179.57 135.24L178.022 133.974L178.02 133.976L179.57 135.24ZM192.22 121.71L193.585 123.171L194.091 122.699L194.197 122.014L192.22 121.71ZM194.09 118.52L195.549 119.888L195.57 119.866L195.59 119.843L194.09 118.52ZM197.83 115.33L198.898 117.021L198.929 117.001L198.959 116.981L197.83 115.33ZM203.99 115.33L202.52 116.687L202.548 116.716L202.576 116.744L203.99 115.33ZM204.21 120.06L205.332 121.716L205.344 121.707L205.357 121.698L204.21 120.06ZM195.96 126.66L197.267 128.174L197.277 128.165L197.287 128.157L195.96 126.66ZM185.62 136.34L187.02 137.768L187.027 137.761L187.034 137.754L185.62 136.34ZM174.84 147.78L173.333 146.465L173.331 146.467L174.84 147.78ZM165.27 159.77L163.653 158.594L163.649 158.599L165.27 159.77ZM158.34 171.1L156.544 170.22L156.537 170.235L156.53 170.25L158.34 171.1ZM156.03 183.09L157.819 182.196L157.763 182.084L157.694 181.981L156.03 183.09ZM158.45 185.62L159.752 187.139L159.752 187.139L158.45 185.62ZM156.774 184.179C155.599 184.065 155.008 183.71 154.691 183.354C154.368 182.992 154.07 182.339 154.07 181.11H150.07C150.07 182.961 150.524 184.691 151.704 186.016C152.89 187.346 154.554 187.982 156.386 188.161L156.774 184.179ZM154.07 181.11C154.07 179.873 154.368 178.313 155.053 176.393L151.287 175.047C150.506 177.234 150.07 179.267 150.07 181.11H154.07ZM155.061 176.372C155.772 174.309 156.629 172.166 157.633 169.943L153.987 168.297C152.938 170.62 152.035 172.877 151.279 175.068L155.061 176.372ZM157.61 169.991C158.703 167.732 159.758 165.622 160.776 163.661L157.224 161.819C156.188 163.818 155.117 165.961 154.01 168.249L157.61 169.991ZM160.748 163.711C161.844 161.739 162.752 160.141 163.474 158.914L160.026 156.886C159.281 158.152 158.356 159.781 157.252 161.769L160.748 163.711ZM163.498 158.871C163.869 158.203 164.161 157.66 164.364 157.254C164.464 157.055 164.556 156.861 164.627 156.689C164.663 156.605 164.705 156.497 164.742 156.379C164.763 156.313 164.85 156.04 164.85 155.7H160.85C160.85 155.52 160.876 155.384 160.888 155.326C160.902 155.258 160.917 155.209 160.924 155.186C160.938 155.142 160.946 155.125 160.935 155.151C160.915 155.199 160.87 155.299 160.786 155.466C160.622 155.793 160.364 156.277 160.002 156.929L163.498 158.871ZM164.85 155.7C164.85 155.051 164.743 154.355 164.419 153.706L160.841 155.494C160.825 155.462 160.827 155.454 160.834 155.487C160.841 155.521 160.85 155.589 160.85 155.7H164.85ZM164.487 153.857C164.445 153.752 164.41 153.605 164.41 153.39H160.41C160.41 154.055 160.522 154.714 160.773 155.343L164.487 153.857ZM164.41 153.39C164.41 153.488 164.397 153.532 164.404 153.501C164.409 153.475 164.425 153.414 164.461 153.313C164.534 153.107 164.66 152.812 164.859 152.414L161.281 150.626C161.04 151.108 160.836 151.564 160.689 151.982C160.554 152.364 160.41 152.866 160.41 153.39H164.41ZM164.798 152.528C165.443 151.421 165.84 150.232 165.84 148.99H161.84C161.84 149.361 161.724 149.859 161.342 150.512L164.798 152.528ZM165.84 148.99C165.84 145.271 164.908 141.593 163.099 137.976L159.521 139.764C161.086 142.893 161.84 145.962 161.84 148.99H165.84ZM163.099 137.976C161.371 134.52 159.52 131.419 157.541 128.679L154.299 131.021C156.133 133.561 157.875 136.473 159.521 139.764L163.099 137.976ZM153.931 129.644C153.824 130.679 153.708 131.343 153.607 131.711C153.552 131.91 153.535 131.894 153.602 131.786C153.638 131.727 153.747 131.563 153.961 131.4C154.196 131.221 154.567 131.04 155.04 131.04V135.04C156.205 135.04 156.815 134.195 157.001 133.895C157.233 133.522 157.371 133.107 157.463 132.774C157.655 132.078 157.796 131.147 157.909 130.056L153.931 129.644ZM155.04 131.04C155.604 131.04 155.939 131.308 155.98 131.341C156.049 131.396 156.039 131.405 155.953 131.29C155.785 131.066 155.527 130.641 155.179 129.946L151.601 131.734C151.987 132.505 152.37 133.18 152.753 133.69C152.941 133.942 153.183 134.226 153.481 134.464C153.752 134.681 154.292 135.04 155.04 135.04V131.04ZM155.196 129.98C154.404 128.318 153.282 126.43 151.855 124.327L148.545 126.573C149.905 128.577 150.909 130.282 151.584 131.7L155.196 129.98ZM151.899 124.395C150.415 122.004 148.376 119.94 145.833 118.192L143.567 121.488C145.717 122.966 147.345 124.643 148.501 126.505L151.899 124.395ZM145.928 118.261C145.825 118.182 145.754 118.116 145.707 118.067C145.659 118.017 145.641 117.99 145.64 117.988C145.639 117.987 145.658 118.016 145.676 118.073C145.695 118.132 145.71 118.21 145.71 118.3H141.71C141.71 119.734 142.63 120.763 143.472 121.419L145.928 118.261ZM145.71 118.3C145.71 117.981 145.782 117.77 146.242 117.506L144.258 114.034C142.665 114.944 141.71 116.419 141.71 118.3H145.71ZM146.242 117.506C147.039 117.051 147.689 116.89 148.22 116.89V112.89C146.844 112.89 145.515 113.315 144.258 114.034L146.242 117.506ZM148.22 116.89C149.336 116.89 150.69 117.439 152.306 119.054L155.134 116.226C153.083 114.174 150.771 112.89 148.22 112.89V116.89ZM152.306 119.054C153.973 120.722 155.59 122.94 157.138 125.754L160.642 123.826C158.963 120.773 157.133 118.225 155.134 116.226L152.306 119.054ZM157.167 125.806C158.796 128.568 160.216 131.512 161.424 134.641L165.156 133.199C163.871 129.875 162.357 126.732 160.613 123.774L157.167 125.806ZM161.439 134.677C162.737 137.851 163.775 140.79 164.559 143.496L168.401 142.384C167.571 139.517 166.483 136.443 165.141 133.163L161.439 134.677ZM164.559 143.496C165.353 146.24 165.74 148.223 165.802 149.525L169.798 149.335C169.713 147.557 169.22 145.214 168.401 142.384L164.559 143.496ZM169.329 150.72C173.296 146.018 177.226 141.279 181.12 136.504L178.02 133.976C174.14 138.734 170.224 143.455 166.271 148.14L169.329 150.72ZM181.118 136.506C185.023 131.734 189.179 127.289 193.585 123.171L190.855 120.249C186.315 124.491 182.037 129.066 178.022 133.974L181.118 136.506ZM194.197 122.014C194.253 121.646 194.559 120.944 195.549 119.888L192.631 117.152C191.421 118.443 190.48 119.867 190.243 121.406L194.197 122.014ZM195.59 119.843C196.565 118.738 197.667 117.799 198.898 117.021L196.762 113.639C195.207 114.621 193.815 115.809 192.59 117.197L195.59 119.843ZM198.959 116.981C200.314 116.053 200.976 115.9 201.13 115.9V111.9C199.67 111.9 198.132 112.7 196.701 113.679L198.959 116.981ZM201.13 115.9C201.459 115.9 201.913 116.028 202.52 116.687L205.46 113.973C204.307 112.725 202.855 111.9 201.13 111.9V115.9ZM202.576 116.744C203.166 117.334 203.31 117.803 203.31 118.19H207.31C207.31 116.524 206.574 115.086 205.404 113.916L202.576 116.744ZM203.31 118.19C203.31 118.205 203.308 118.205 203.311 118.198C203.313 118.19 203.315 118.187 203.311 118.193C203.303 118.207 203.249 118.291 203.063 118.422L205.357 121.698C206.491 120.904 207.31 119.724 207.31 118.19H203.31ZM203.088 118.404C200.715 120.012 197.893 122.274 194.633 125.163L197.287 128.157C200.481 125.326 203.158 123.188 205.332 121.716L203.088 118.404ZM194.653 125.146C191.382 127.971 187.9 131.232 184.206 134.926L187.034 137.754C190.674 134.115 194.084 130.923 197.267 128.174L194.653 125.146ZM184.22 134.912C180.515 138.543 176.886 142.394 173.333 146.465L176.347 149.095C179.834 145.099 183.392 141.324 187.02 137.768L184.22 134.912ZM173.331 146.467C169.848 150.469 166.622 154.511 163.653 158.594L166.887 160.946C169.785 156.963 172.938 153.011 176.349 149.093L173.331 146.467ZM163.649 158.599C160.736 162.632 158.363 166.506 156.544 170.22L160.136 171.98C161.837 168.508 164.084 164.828 166.891 160.941L163.649 158.599ZM156.53 170.25C154.767 174.004 153.81 177.492 153.81 180.67H157.81C157.81 178.274 158.539 175.382 160.15 171.95L156.53 170.25ZM153.81 180.67C153.81 181.391 153.829 182.01 153.873 182.501C153.895 182.745 153.927 182.997 153.978 183.234C154.017 183.415 154.11 183.816 154.366 184.199L157.694 181.981C157.801 182.141 157.85 182.273 157.866 182.319C157.885 182.374 157.891 182.405 157.889 182.396C157.885 182.376 157.871 182.299 157.857 182.139C157.828 181.823 157.81 181.343 157.81 180.67H153.81ZM154.241 183.984C154.707 184.916 155.594 185.234 156.037 185.352C156.555 185.491 157.129 185.53 157.68 185.53V181.53C157.491 181.53 157.344 181.523 157.235 181.512C157.181 181.507 157.14 181.501 157.111 181.496C157.097 181.494 157.086 181.492 157.078 181.49C157.071 181.488 157.068 181.487 157.068 181.488C157.068 181.488 157.073 181.489 157.081 181.492C157.09 181.495 157.103 181.499 157.121 181.506C157.155 181.52 157.212 181.547 157.284 181.592C157.427 181.682 157.655 181.869 157.819 182.196L154.241 183.984ZM157.68 185.53C157.859 185.53 157.969 185.542 158.025 185.551C158.086 185.561 158.042 185.562 157.941 185.511C157.832 185.457 157.63 185.328 157.46 185.073C157.281 184.805 157.22 184.522 157.22 184.3H161.22C161.22 183.822 161.095 183.314 160.788 182.854C160.489 182.406 160.095 182.116 159.729 181.934C159.055 181.596 158.295 181.53 157.68 181.53V185.53ZM157.22 184.3C157.22 184.213 157.233 184.134 157.252 184.07C157.27 184.007 157.291 183.968 157.3 183.952C157.308 183.938 157.306 183.945 157.282 183.973C157.257 184.001 157.215 184.044 157.148 184.101L159.752 187.139C160.47 186.523 161.22 185.578 161.22 184.3H157.22ZM157.148 184.101C157.09 184.152 157.023 184.204 156.779 184.18L156.381 188.16C157.604 188.282 158.784 187.968 159.752 187.139L157.148 184.101Z" fill="black"/>
<path d="M53.3516 259.09C47.4922 257.859 44.1523 256.277 42.9219 254.52C32.7852 240.398 82.1797 240.633 87.043 240.398C86.6914 242.332 86.2812 244.617 85.6953 247.547C81.6523 267.645 72.9805 303.27 57.1602 300.105C43.625 297.41 2.90234 254.637 9.11328 236.883C11.3984 230.32 25.9297 226.688 39.3477 233.25C39.9336 233.543 40.5195 233.895 41.0469 233.484C41.5742 233.074 41.8086 232.137 41.2812 231.785C28.1562 224.109 9.875 227.332 6.82812 236.121C0.0898438 255.34 41.75 299.461 56.6914 302.449C74.6797 306.023 83.8789 268.992 88.0391 248.016C88.5664 245.379 89.0938 242.625 89.5039 240.398C89.5625 240.398 89.6797 240.34 89.7383 240.281C94.8945 238.23 114.465 239.93 119.738 240.34C120.383 240.398 120.969 239.871 121.027 239.227C121.379 234.832 90.5 237.41 89.2109 237.938C82.1797 238.172 28.2734 238.113 40.9883 255.926C42.5703 258.152 46.3789 260.086 52.8242 261.434C53.4688 261.609 54.1133 261.199 54.2305 260.496C54.4062 259.852 53.9961 259.207 53.3516 259.09ZM97.0039 273.445C94.8945 270.516 91.7891 271.102 89.2109 272.918C87.9805 273.797 86.9258 274.969 86.1641 276.082C85.3438 277.312 84.875 278.66 84.9922 279.715C85.1094 281.238 86.1641 282.176 88.3906 281.941C92.375 281.531 95.8906 278.777 98.1758 276.434C97.8828 280.184 98.293 281.766 100.051 282C101.34 282.234 103.039 281.238 105.676 279.715C107.492 278.66 109.777 277.312 112.648 275.906C113.234 275.613 113.527 274.91 113.234 274.324C112.941 273.738 112.18 273.445 111.594 273.738C108.664 275.203 106.262 276.551 104.445 277.605C102.277 278.895 100.871 279.715 100.402 279.656C100.109 279.598 100.344 277.723 100.988 272.801C101.047 272.332 100.871 271.863 100.461 271.629C99.9336 271.277 99.1719 271.395 98.8203 271.922C98.8203 271.922 98.2344 272.801 97.1797 273.914C97.1797 273.738 97.1211 273.562 97.0039 273.445ZM95.8906 275.32C93.957 277.254 91.2031 279.246 88.1562 279.539C87.6289 279.598 87.3945 279.539 87.3945 279.48C87.3359 278.953 87.6289 278.25 88.1562 277.43C88.8008 276.492 89.6797 275.555 90.6172 274.91C92.1406 273.797 93.957 273.328 95.0703 274.852C95.2461 275.145 95.5391 275.32 95.8906 275.32ZM120.148 273.387C121.789 270.926 122.258 269.168 122.023 267.996C121.672 266.355 120.266 265.828 118.449 266.18C117.16 266.414 115.578 267.117 114.23 268.113C111.828 269.93 110.012 272.625 111.066 275.32C111.652 276.844 112.824 278.426 114.055 280.008C101.867 285.281 89.8555 291.785 107.082 291.375C116.926 291.199 119.855 288.914 119.797 285.809C119.738 284.285 118.859 282.645 117.746 281.004C124.309 278.367 130.812 276.082 130.871 276.023C131.516 275.789 131.809 275.145 131.574 274.5C131.398 273.855 130.695 273.562 130.051 273.797C129.992 273.797 123.43 276.141 116.34 279.07L116.047 278.719C114.934 277.195 113.762 275.672 113.293 274.441C112.707 272.977 113.996 271.277 115.637 270.047C116.691 269.285 117.922 268.699 118.859 268.523C119.328 268.465 119.68 268.406 119.68 268.523C119.797 269.051 119.387 270.164 118.156 272.039C117.746 272.566 117.922 273.328 118.449 273.738C118.977 274.09 119.738 273.914 120.148 273.387ZM117.395 285.867C117.453 287.566 115.051 288.797 107.023 288.973C99.8164 289.148 107.141 285.457 115.52 281.941C116.516 283.406 117.336 284.812 117.395 285.867ZM168.195 273.445C162.57 278.836 159.934 280.359 158.996 279.598C158.059 278.836 158.527 275.496 159.523 271.219C160.109 268.758 159.641 267.586 158.469 267.293C156.594 266.883 153.078 270.984 149.973 274.559C149.621 274.969 149.328 275.379 148.977 275.73C150.207 273.504 151.438 271.16 151.145 269.52C150.617 264.832 146.691 263.777 142.531 264.305C140.539 264.539 138.547 265.125 136.848 265.828C135.09 266.531 133.684 267.352 133.039 268.055C132.277 268.934 132.16 269.754 132.922 270.457C136.73 273.973 136.906 276.258 135.793 277.488C135.148 278.191 133.977 278.602 132.863 278.719H132.805C131.809 278.836 130.93 278.66 130.578 278.191C130.109 277.723 130.52 276.609 132.688 274.676C133.156 274.207 133.215 273.445 132.805 272.977C132.336 272.449 131.574 272.391 131.105 272.859C127.59 275.965 127.473 278.309 128.762 279.773C129.641 280.828 131.281 281.238 132.98 281.121H133.098C134.738 281.004 136.438 280.301 137.609 279.07C139.426 277.078 139.66 273.738 135.207 269.344C135.793 268.934 136.672 268.465 137.727 267.996C139.25 267.41 141.066 266.883 142.824 266.648C145.695 266.355 148.449 266.941 148.801 269.812C148.801 269.812 148.801 269.812 148.801 269.871C148.977 270.809 147.746 273.035 146.574 275.086C145.227 277.488 144.055 279.715 145.109 280.887C145.812 281.707 146.691 281.473 147.746 280.535C148.742 279.656 150.207 277.957 151.789 276.141C154.484 273.035 157.473 269.578 157.883 269.637C158.176 269.695 157.355 269.871 157.18 270.691C156.008 275.73 155.656 279.949 157.531 281.473C159.406 283.055 163.156 281.648 169.836 275.203C170.305 274.734 170.363 273.973 169.895 273.504C169.426 273.035 168.664 272.977 168.195 273.445ZM171.008 271.688C170.949 271.688 166.203 272.801 169.543 269.109C172.707 265.594 184.543 259.617 196.613 255.516C206.047 252.352 215.539 250.359 220.871 251.766C224.328 252.645 224.68 254.812 224.035 257.332C223.625 258.738 223.039 260.32 222.395 261.844C221.633 263.66 220.93 265.477 220.578 267.176C219.875 270.633 220.637 273.387 225.559 274.383C231.184 275.555 239.973 266.648 247.238 259.266C251.984 254.461 256.027 250.359 256.906 250.711C257.902 251.121 256.613 256.219 251.398 269.93C239.504 267.938 233.117 274.148 230.715 281.062C229.602 284.344 229.367 287.742 229.895 290.555C230.422 293.543 231.887 295.887 233.996 296.707C238.156 298.289 244.953 293.484 252.219 274.5C252.512 273.855 252.688 273.27 252.922 272.684C254.035 272.977 255.266 273.328 256.496 273.738C257.082 273.973 257.785 273.621 257.961 272.977C258.195 272.391 257.902 271.688 257.258 271.453C256.027 271.043 254.914 270.691 253.801 270.457C259.367 255.281 260.07 249.363 257.785 248.484C255.441 247.605 250.871 252.176 245.539 257.625C238.684 264.539 230.422 272.918 226.027 272.039C222.98 271.395 222.512 269.754 222.922 267.645C223.215 266.18 223.918 264.48 224.621 262.723C225.266 261.141 225.91 259.5 226.32 257.977C227.316 254.109 226.789 250.828 221.457 249.422C215.598 247.957 205.637 249.949 195.852 253.289C183.43 257.449 171.125 263.719 167.727 267.527C159.348 276.844 171.477 274.031 171.535 274.031C172.18 273.914 172.59 273.27 172.414 272.625C172.297 271.98 171.652 271.57 171.008 271.688ZM249.992 273.621C243.312 290.965 237.922 295.652 234.816 294.48C233.586 293.953 232.648 292.312 232.238 290.086C231.77 287.684 232.004 284.695 233 281.883C234.992 276.023 240.441 270.75 250.52 272.273C250.402 272.684 250.168 273.152 249.992 273.621ZM262.004 270.164C261.945 270.164 256.086 278.953 255.969 281.648C255.793 284.988 261.594 281.062 265.812 277.781C265.227 279.715 265.168 281.59 266.75 282.41C267.746 282.879 269.152 282.234 270.676 280.828C271.965 279.598 273.547 277.723 275.188 275.555C275.598 275.027 275.48 274.266 274.953 273.914C274.426 273.504 273.664 273.621 273.254 274.148C268.215 281.883 265.344 282.293 270.266 274.09C270.559 273.68 270.559 273.035 270.207 272.625C269.738 272.156 268.977 272.098 268.508 272.508C263.293 277.605 258.84 279.773 258.84 279.773C259.367 277.781 263.938 271.512 263.996 271.512C264.348 270.926 264.23 270.223 263.645 269.812C263.117 269.461 262.355 269.637 262.004 270.164Z" fill="black"/>
<path d="M71.8077 73.5255L129.75 40.0725C132.215 38.6491 133.972 37.6369 135.444 36.97C136.886 36.3167 137.948 36.047 139 36.047C140.052 36.047 141.114 36.3167 142.556 36.97C144.028 37.6369 145.785 38.6491 148.25 40.0725L206.192 73.5255C208.658 74.9489 210.413 75.9641 211.726 76.9056C213.013 77.8279 213.778 78.6125 214.304 79.5235C214.829 80.4344 215.127 81.4887 215.282 83.0643C215.441 84.6728 215.442 86.7001 215.442 89.547L215.442 156.453C215.442 159.3 215.441 161.327 215.282 162.936C215.127 164.511 214.829 165.566 214.304 166.476C213.778 167.387 213.013 168.172 211.726 169.094C210.413 170.036 208.658 171.051 206.192 172.474L148.25 205.927C145.785 207.351 144.028 208.363 142.556 209.03C141.114 209.683 140.052 209.953 139 209.953C137.948 209.953 136.886 209.683 135.444 209.03C133.972 208.363 132.215 207.351 129.75 205.927L71.8077 172.474C69.3423 171.051 67.5874 170.036 66.2737 169.094C64.9868 168.172 64.2225 167.387 63.6965 166.476C63.1706 165.566 62.8733 164.511 62.718 162.936C62.5594 161.327 62.5577 159.3 62.5577 156.453L62.5577 89.547C62.5577 86.7002 62.5594 84.6728 62.718 83.0643C62.8733 81.4887 63.1706 80.4344 63.6965 79.5235C64.2225 78.6125 64.9868 77.828 66.2737 76.9056C67.5874 75.9641 69.3423 74.9489 71.8077 73.5255Z" stroke="black" stroke-width="3"/>
<path d="M215.192 177.474L157.25 210.927C154.785 212.351 153.028 213.363 151.556 214.03C150.114 214.683 149.052 214.953 148 214.953C146.948 214.953 145.886 214.683 144.444 214.03C142.972 213.363 141.215 212.351 138.75 210.927L80.8077 177.474C78.3423 176.051 76.5874 175.036 75.2737 174.094C73.9868 173.172 73.2224 172.387 72.6965 171.477C72.1706 170.566 71.8733 169.511 71.7179 167.936C71.5594 166.327 71.5577 164.3 71.5577 161.453L71.5577 94.547C71.5577 91.7002 71.5594 89.6728 71.718 88.0644C71.8733 86.4887 72.1706 85.4345 72.6965 84.5235C73.2225 83.6126 73.9868 82.828 75.2737 81.9057C76.5874 80.9641 78.3423 79.949 80.8077 78.5256L138.75 45.0726C141.215 43.6492 142.972 42.6369 144.444 41.97C145.886 41.3167 146.948 41.047 148 41.047C149.052 41.047 150.114 41.3167 151.556 41.97C153.028 42.6369 154.785 43.6491 157.25 45.0726L215.192 78.5256C217.658 79.949 219.413 80.9641 220.726 81.9057C222.013 82.828 222.778 83.6126 223.304 84.5235C223.829 85.4345 224.127 86.4887 224.282 88.0644C224.441 89.6728 224.442 91.7002 224.442 94.547L224.442 161.453C224.442 164.3 224.441 166.327 224.282 167.936C224.127 169.511 223.829 170.566 223.304 171.477C222.778 172.387 222.013 173.172 220.726 174.094C219.413 175.036 217.658 176.051 215.192 177.474Z" stroke="black" stroke-width="3"/>
</svg>
